<?xml version="1.0"?>
<svg xmlns:rdf="http://www.w3.org/1999/02/22-rdf-syntax-ns#" xmlns="http://www.w3.org/2000/svg" xmlns:cc="http://web.resource.org/cc/" xmlns:xlink="http://www.w3.org/1999/xlink" xmlns:dc="http://purl.org/dc/elements/1.1/" xmlns:svg="http://www.w3.org/2000/svg" id="svg10339" viewBox="0 0 596.75 427.74" version="1.0">
  <defs id="defs10341">
    <linearGradient id="linearGradient8053">
      <stop id="stop8055" stop-color="#fff" offset="0"/>
      <stop id="stop8057" stop-color="#fff" stop-opacity="0" offset="1"/>
    </linearGradient>
    <linearGradient id="linearGradient11027" y2="302.83" xlink:href="#linearGradient8053" gradientUnits="userSpaceOnUse" x2="346.3" gradientTransform="matrix(.089156 .27251 .094308 -.043275 -19.815 320.77)" y1="302.83" x1="203.43"/>
    <linearGradient id="linearGradient11029" y2="302.83" xlink:href="#linearGradient8053" gradientUnits="userSpaceOnUse" x2="346.3" gradientTransform="matrix(-.063760 .27954 .10313 .011415 101.37 295.18)" y1="302.83" x1="203.43"/>
    <linearGradient id="linearGradient5769" y2="1301.1" gradientUnits="userSpaceOnUse" x2="-2370.8" y1="1034.3" x1="-2510.8">
      <stop id="stop7366" stop-color="#541515" offset="0"/>
      <stop id="stop7378" stop-color="#ca0000" stop-opacity=".87451" offset="1"/>
    </linearGradient>
    <linearGradient id="linearGradient5771" y2="302.83" xlink:href="#linearGradient8053" gradientUnits="userSpaceOnUse" x2="346.3" gradientTransform="matrix(1 0 0 .38841 -5.0262 129.99)" y1="302.83" x1="203.43"/>
  </defs>
  <g id="layer1" transform="translate(-4.5281 -196.73)">
    <g id="g5762">
      <path id="40043480" d="m242.32 207.21h289.49c32.46 0 58.99 22.68 58.99 50.42v305.74c0 27.94-26.53 50.62-58.99 50.62h-289.49c-32.45 0-59.22-22.68-59.22-50.62v-305.74c0-27.74 26.77-50.42 59.22-50.42z" stroke="#1f1a17" stroke-width="20.963" fill="#fc0"/>
      <path id="path6383" stroke-linejoin="round" d="m-1937.9 917.09c51.8 292.11-100.1 580.61-338.9 643.91-238.9 63.3-474.7-122.4-526.5-414.6-1.2-7-2.2-13-3.2-20.1l435.9-94.5 432.7-114.71z" transform="matrix(.24515 .037281 -.024755 .16278 992.59 336.62)" stroke="#00f" stroke-linecap="round" stroke-width=".4" fill="url(#linearGradient5769)"/>
      <path id="path6391" stroke-linejoin="round" d="m-690.73 1516.7c26.39 121.8-51.05 242.1-172.86 268.5s-242.11-51.1-268.51-172.9c-6.9-31.8-7.1-60.1-0.7-92" transform="matrix(.23581 0 0 -.23581 517.37 727.67)" stroke="#000" stroke-linecap="round" stroke-width="100.01" fill="none"/>
      <path id="path6393" stroke-linejoin="round" d="m-690.73 1516.7c26.39 121.8-51.05 242.1-172.86 268.5s-242.11-51.1-268.51-172.9c-6.9-31.8-7.1-60.1-0.7-92" transform="matrix(.23581 0 0 -.23581 688.8 731.97)" stroke="#000" stroke-linecap="round" stroke-width="100.01" fill="none"/>
      <path id="path7082" d="m320.6 221.1c11.38 0-7.47 3.48-7.47 7.25-117.91-13.26-88.9 41.87-102.01 77.4-11.37 0-12.71-32.37-12.71-36.17 6.63-65.87 73.18-44.39 122.19-48.48z" fill="url(#linearGradient5771)"/>
    </g>
    <g id="g11019" transform="matrix(1.1914 -.42159 .42352 1.1969 -166.03 -33.945)">
      <path id="path8073" stroke-linejoin="round" d="m160.65 456.41c0.46 18.61 4.26 40.27-2.06 56.08-4.24 10.6-18.21 19.76-29.62 23.16-15.85 4.71-35.413 4.27-52.165 1.37-11.506-2-23.425-6.76-32.386-15.91-8.512-8.7-13.691-19.64-15.268-31.58-1.361-10.31-3.756-23.39 8.254-27.16 11.601-8.54 22.367-19.24 36.288-23.8 23.261-5.92 46.797 1.82 69.817 4.69 6.92 0.86 16.95 5.4 17.14 13.15z" fill-rule="evenodd" stroke="#000" stroke-linecap="round" stroke-width="12" fill="#fc0"/>
      <path id="path8067" stroke-linejoin="round" d="m123.98 434c8.69-22.04 22.8-44.32 22.91-57.99s-9.42-25.42-20.84-26.43c-11.41-1.02-19.88 5.3-24.03 20.37-4.159 15.08-14.733 36.82-22.099 55.23-5.507-20.79-10.835-40.26-18.258-53.68-7.424-13.43-18.664-22.04-30.481-17.82s-17.319 19.65-9.837 37.07 13.595 40.77 17.268 65.29" fill-rule="evenodd" stroke="#000" stroke-linecap="round" stroke-width="12" fill="#fc0"/>
      <path id="path8069" stroke-linejoin="round" d="m42.918 467.99c-5.329-7.94-18.588-7.61-27.493-0.92-8.9051 6.69-9.5354 19.46-5.5221 29.32 4.7371 11.58 14.377 21.93 26.264 26.13 10.302 4.04 19.145-2.7 20.424-12.89 3.218-7.57 4.073-17.53-2.713-23.46-2.879-2.87 12.531 11.03 24.021 6.78 12.446-2.02 12.273-6.37 14.992-15.36-1.731-11.06-9.242-51.84-31.848-38.69-22.605 13.15-23.615 15.79-18.125 29.09z" fill-rule="evenodd" stroke="#000" stroke-linecap="round" stroke-width="12" fill="#fc0"/>
      <path id="path8065" stroke-linejoin="round" d="m157.45 453.9c-2.59-11.74-5.75-19.87-16.92-19.22s-57.269 4.58-61.74 9.01c-2.96 2.93-3.356 21.12 5.465 28.95 8.927 7.93 44.065-7.95 43.205-7.35-7.31 5.11-16.4 15.52-15.13 28.32 1.17 11.73 8.75 14.78 17.97 16.1" fill-rule="evenodd" stroke="#000" stroke-linecap="round" stroke-width="12" fill="#fc0"/>
      <path id="path11011" fill="url(#linearGradient11027)" d="m28.205 391.03c1.014 3.1 9.303 11.81 10.219 11.39-6.866-15.32-7.774-23.3-6.073-28.62 1.641-5.14 5.615-9.98 15.771-7.8-1.014-3.1-10.403-8.62-18.565-3.83-7.97 9.89-3.04 21.95-1.352 28.86z"/>
      <path id="path11015" fill="url(#linearGradient11029)" d="m106.4 380.13c-0.72 3.18 1.9 14.92 2.9 15.03 2-16.67 5.33-23.98 9.52-27.67 4.05-3.56 9.95-5.67 17.54 1.43 0.72-3.18-4.49-12.75-13.95-12.84-11.92 4.38-13.9 17.26-16.01 24.05z"/>
    </g>
  </g>
  <metadata>
    <rdf:RDF>
      <cc:Work>
        <dc:format>image/svg+xml</dc:format>
        <dc:type rdf:resource="http://purl.org/dc/dcmitype/StillImage"/>
        <cc:license rdf:resource="http://creativecommons.org/licenses/publicdomain/"/>
        <dc:publisher>
          <cc:Agent rdf:about="http://openclipart.org/">
            <dc:title>Openclipart</dc:title>
          </cc:Agent>
        </dc:publisher>
        <dc:title>Kawaii</dc:title>
        <dc:date>2008-03-01T03:23:59</dc:date>
        <dc:description>cartoon, cartoon, clip art, clipart, emoticon, emoticon, image, media, png, public domain, svg, </dc:description>
        <dc:source>http://openclipart.org/detail/15206/kawaii-by-ecuabron</dc:source>
        <dc:creator>
          <cc:Agent>
            <dc:title>ecuabron</dc:title>
          </cc:Agent>
        </dc:creator>
        <dc:subject>
          <rdf:Bag>
            <rdf:li>cartoon</rdf:li>
            <rdf:li>clip art</rdf:li>
            <rdf:li>clipart</rdf:li>
            <rdf:li>emoticon</rdf:li>
            <rdf:li>image</rdf:li>
            <rdf:li>media</rdf:li>
            <rdf:li>png</rdf:li>
            <rdf:li>public domain</rdf:li>
            <rdf:li>svg</rdf:li>
          </rdf:Bag>
        </dc:subject>
      </cc:Work>
      <cc:License rdf:about="http://creativecommons.org/licenses/publicdomain/">
        <cc:permits rdf:resource="http://creativecommons.org/ns#Reproduction"/>
        <cc:permits rdf:resource="http://creativecommons.org/ns#Distribution"/>
        <cc:permits rdf:resource="http://creativecommons.org/ns#DerivativeWorks"/>
      </cc:License>
    </rdf:RDF>
  </metadata>
</svg>
